<svg width="22" height="22" viewBox="0 0 22 22" fill="none" xmlns="http://www.w3.org/2000/svg">
<path d="M15.3976 17.0347H5.84048C4.5131 17.0347 3.98215 16.4683 3.98215 15.0613V14.141C3.98215 12.734 4.5131 12.1676 5.84048 12.1676H15.3976C16.725 12.1676 17.256 12.734 17.256 14.141V15.0613C17.256 16.4683 16.725 17.0347 15.3976 17.0347Z" stroke="#FEDC5A" stroke-width="1.32738" stroke-linecap="round" stroke-linejoin="round"/>
<path d="M13.6278 9.51294H7.61032C6.28294 9.51294 5.75198 8.94659 5.75198 7.53956V6.61925C5.75198 5.21222 6.28294 4.64587 7.61032 4.64587H13.6278C14.9552 4.64587 15.4861 5.21222 15.4861 6.61925V7.53956C15.4861 8.94659 14.9552 9.51294 13.6278 9.51294Z" stroke="#FEDC5A" stroke-width="1.32738" stroke-linecap="round" stroke-linejoin="round"/>
<path d="M10.619 19.4683V17.3445" stroke="#FEDC5A" stroke-width="1.32738" stroke-linecap="round" stroke-linejoin="round"/>
<path d="M10.619 11.504V9.73413" stroke="#FEDC5A" stroke-width="1.32738" stroke-linecap="round" stroke-linejoin="round"/>
<path d="M10.619 1.7699V4.15033" stroke="#292D32" stroke-width="1.32738" stroke-linecap="round" stroke-linejoin="round"/>
</svg>
