<svg width="22" height="22" viewBox="0 0 22 22" fill="none" xmlns="http://www.w3.org/2000/svg">
<path d="M5.98206 19.4683H15.256C17.6984 19.4683 18.6718 17.9728 18.7869 16.1499L19.247 8.84041C19.3709 6.92898 17.8488 5.30958 15.9286 5.30958C15.3888 5.30958 14.8932 4.99986 14.6454 4.522L14.0083 3.23887C13.6012 2.43359 12.5393 1.7699 11.6367 1.7699H9.61024C8.69877 1.7699 7.63686 2.43359 7.2298 3.23887L6.59266 4.522C6.34488 4.99986 5.84932 5.30958 5.30952 5.30958C3.38924 5.30958 1.86718 6.92898 1.99107 8.84041L2.45123 16.1499C2.55742 17.9728 3.53968 19.4683 5.98206 19.4683Z" stroke="#5454D4" stroke-width="1.32738" stroke-linecap="round" stroke-linejoin="round"/>
<path d="M9.29166 7.07935H11.9464" stroke="#5454D4" stroke-width="1.32738" stroke-linecap="round" stroke-linejoin="round"/>
<path d="M10.619 15.9286C12.203 15.9286 13.495 14.6366 13.495 13.0526C13.495 11.4686 12.203 10.1766 10.619 10.1766C9.03503 10.1766 7.74304 11.4686 7.74304 13.0526C7.74304 14.6366 9.03503 15.9286 10.619 15.9286Z" stroke="#5454D4" stroke-width="1.32738" stroke-linecap="round" stroke-linejoin="round"/>
</svg>
