<svg width="22" height="22" viewBox="0 0 22 22" fill="none" xmlns="http://www.w3.org/2000/svg">
<path d="M7.96427 11.5039C7.38022 11.7959 6.89352 12.2295 6.5307 12.7693C6.32717 13.0791 6.32717 13.4684 6.5307 13.7782C6.89352 14.318 7.38022 14.7516 7.96427 15.0436" stroke="#FEDC5A" stroke-width="1.32738" stroke-linecap="round" stroke-linejoin="round"/>
<path d="M13.4596 11.5039C14.0436 11.7959 14.5303 12.2295 14.8932 12.7693C15.0967 13.0791 15.0967 13.4684 14.8932 13.7782C14.5303 14.318 14.0436 14.7516 13.4596 15.0436" stroke="#FEDC5A" stroke-width="1.32738" stroke-linecap="round" stroke-linejoin="round"/>
<path d="M7.96428 19.4683H13.2738C17.6984 19.4683 19.4682 17.6985 19.4682 13.2739V7.96434C19.4682 3.53974 17.6984 1.7699 13.2738 1.7699H7.96428C3.53968 1.7699 1.76984 3.53974 1.76984 7.96434V13.2739C1.76984 17.6985 3.53968 19.4683 7.96428 19.4683Z" stroke="#FEDC5A" stroke-width="1.32738" stroke-linecap="round" stroke-linejoin="round"/>
<path d="M1.97333 7.0882L18.9815 7.07935" stroke="#FEDC5A" stroke-width="1.32738" stroke-linecap="round" stroke-linejoin="round"/>
</svg>
