<svg width="22" height="22" viewBox="0 0 22 22" fill="none" xmlns="http://www.w3.org/2000/svg">
<path d="M11.5128 2.58399L16.7339 4.90249C18.2382 5.56618 18.2382 6.66348 16.7339 7.32717L11.5128 9.64566C10.9199 9.91114 9.94653 9.91114 9.35364 9.64566L4.13261 7.32717C2.62824 6.66348 2.62824 5.56618 4.13261 4.90249L9.35364 2.58399C9.94653 2.31852 10.9199 2.31852 11.5128 2.58399Z" stroke="#F04037" stroke-width="1.32738" stroke-linecap="round" stroke-linejoin="round"/>
<path d="M2.65475 9.73413C2.65475 10.4775 3.21225 11.3358 3.89364 11.6367L9.90225 14.3092C10.3624 14.5127 10.8845 14.5127 11.3358 14.3092L17.3444 11.6367C18.0258 11.3358 18.5833 10.4775 18.5833 9.73413" stroke="#F04037" stroke-width="1.32738" stroke-linecap="round" stroke-linejoin="round"/>
<path d="M2.65475 14.1587C2.65475 14.9817 3.14146 15.725 3.89364 16.0613L9.90225 18.7337C10.3624 18.9373 10.8845 18.9373 11.3358 18.7337L17.3444 16.0613C18.0966 15.725 18.5833 14.9817 18.5833 14.1587" stroke="#F04037" stroke-width="1.32738" stroke-linecap="round" stroke-linejoin="round"/>
</svg>
