<svg width="22" height="22" viewBox="0 0 22 22" fill="none" xmlns="http://www.w3.org/2000/svg">
<path d="M19.4682 13.2739V7.96434C19.4682 3.53974 17.6984 1.7699 13.2738 1.7699H7.96428C3.53968 1.7699 1.76984 3.53974 1.76984 7.96434V13.2739C1.76984 17.6985 3.53968 19.4683 7.96428 19.4683H13.2738C17.6984 19.4683 19.4682 17.6985 19.4682 13.2739Z" stroke="#F04037" stroke-width="1.32738" stroke-linecap="round" stroke-linejoin="round"/>
<path d="M2.23004 6.29187H19.0081" stroke="#F04037" stroke-width="1.32738" stroke-linecap="round" stroke-linejoin="round"/>
<path d="M7.53955 1.86731V6.16802" stroke="#F04037" stroke-width="1.32738" stroke-linecap="round" stroke-linejoin="round"/>
<path d="M13.6985 1.86731V5.76981" stroke="#F04037" stroke-width="1.32738" stroke-linecap="round" stroke-linejoin="round"/>
<path d="M8.62799 12.7872V11.7253C8.62799 10.3625 9.59255 9.80498 10.7695 10.4864L11.6898 11.0173L12.6101 11.5483C13.7871 12.2297 13.7871 13.3447 12.6101 14.0261L11.6898 14.557L10.7695 15.088C9.59255 15.7693 8.62799 15.2118 8.62799 13.8491V12.7872V12.7872Z" stroke="#F04037" stroke-width="1.32738" stroke-miterlimit="10" stroke-linecap="round" stroke-linejoin="round"/>
</svg>
